<svg width="57" height="28" viewBox="0 0 57 28" fill="none" xmlns="http://www.w3.org/2000/svg">
<path d="M21.8986 12.3632H20.7441L22.5082 0.136344H23.7616C23.9595 0.136344 26.6313 0.00537109 26.8787 0.00537109C30.1278 0.00537109 31.5626 1.82262 31.5626 4.91685C31.5626 9.28738 29.0393 12.4962 24.7512 12.4962C23.8111 12.4942 22.2285 12.3632 21.8986 12.3632ZM27.0931 9.67825C28.1322 8.69595 28.6283 6.96125 28.6283 4.86568C28.6283 4.14533 28.5458 3.5887 28.3809 3.17941C28.0511 2.3772 27.4079 2.09889 26.3028 2.09889C25.8884 2.09611 25.4746 2.12897 25.0659 2.19712L23.9114 10.2513C24.2413 10.3659 24.6536 10.415 25.1484 10.415C25.9221 10.415 26.5667 10.1694 27.0931 9.67825Z" fill="#0068FF"/>
<path d="M31.4316 12.3633L32.6837 3.24497H35.4545L35.3225 5.14408C35.6854 4.07992 36.5925 3.13037 37.681 3.13037C37.9449 3.13037 38.162 3.16311 38.2417 3.2286L37.7332 6.12637C37.6507 5.9954 37.2522 5.91354 36.9416 5.91354C36.2324 5.91354 35.7211 6.11 35.1439 6.61752L34.2972 12.3633H31.4316Z" fill="#0068FF"/>
<path d="M16.4055 27.5066H15.1328L17.0783 14.026H18.4595C18.678 14.026 21.6206 13.8813 21.8955 13.8813C25.4764 13.8813 27.0584 15.8848 27.0584 19.2956C27.0584 24.1143 24.2766 27.6512 19.5501 27.6512C18.5145 27.6512 16.769 27.5066 16.4055 27.5066ZM22.1346 24.5474C23.2795 23.4642 23.8251 21.5514 23.8251 19.2417C23.8251 18.447 23.7344 17.8337 23.5502 17.3828C23.1867 16.496 22.4775 16.1918 21.2598 16.1918C20.8413 16.1918 20.2414 16.2273 19.8958 16.2996L18.6238 25.1784C18.9873 25.3053 19.4415 25.3592 19.9871 25.3592C20.8413 25.3592 21.5519 25.0884 22.1346 24.5474Z" fill="#0068FF"/>
<path d="M26.9102 27.507L28.2914 17.4548H31.346L31.2037 19.5483C31.6037 18.3757 32.6036 17.3286 33.8034 17.3286C34.0948 17.3286 34.3312 17.3648 34.4219 17.4371L33.8584 20.6316C33.767 20.487 33.3313 20.3969 32.9856 20.3969C32.2036 20.3969 31.6401 20.6132 31.0038 21.1725L30.0767 27.507H26.9102Z" fill="#0068FF"/>
<path d="M34.0566 27.5067L35.4386 17.4546H38.6382L37.2198 27.5067H34.0566Z" fill="#0068FF"/>
<path d="M35.6367 14.7683C35.6367 13.7574 36.4181 12.9634 37.5093 12.9634C38.3814 12.9634 39.0727 13.6135 39.0727 14.3891C39.0727 15.4539 38.3449 16.2118 37.1485 16.2118C36.3617 16.2118 35.6367 15.5439 35.6367 14.7683Z" fill="#7ABEFC"/>
<path d="M36.3242 14.0862C36.3242 13.0753 37.1056 12.2812 38.1968 12.2812C39.0689 12.2812 39.7602 12.9313 39.7602 13.7069C39.7602 14.7718 39.0324 15.5296 37.836 15.5296C37.0492 15.5296 36.3242 14.8618 36.3242 14.0862Z" fill="url(#paint0_linear_2393_9100)"/>
<path d="M35.9121 14.4954C35.9121 13.4845 36.6934 12.6904 37.7847 12.6904C38.6568 12.6904 39.3481 13.3405 39.3481 14.1161C39.3481 15.181 38.6203 15.9388 37.4239 15.9388C36.6371 15.9388 35.9121 15.271 35.9121 14.4954Z" fill="#0068FF"/>
<path d="M40.7338 15.2192L39.0742 27.5075H42.2353L43.9114 15.2192H40.7338Z" fill="#0068FF"/>
<path d="M44.0723 27.5068L46.0177 13.106H49.1994L47.2361 27.5068H44.0723Z" fill="#0068FF"/>
<path d="M48.8164 27.0373L49.3256 24.5651C49.6692 24.9444 51.0711 25.4519 51.6889 25.4519C52.4888 25.4519 52.9794 25.2896 52.9794 24.7302C52.9794 24.1163 52.2922 23.7916 51.124 22.8884C50.2698 22.166 49.7785 21.4082 49.7785 20.2533C49.7785 18.2498 51.6511 17.3296 53.8872 17.3296C54.7599 17.3296 55.9419 17.5104 56.2505 17.6543L55.9069 20.2894C55.5433 19.9102 54.6156 19.4954 53.8157 19.4954C53.0887 19.4954 52.7073 19.784 52.7073 20.1994C52.7073 20.8672 53.7436 21.4082 54.18 21.8413C55.3248 22.7077 55.9612 23.4103 55.9612 24.5842C55.9612 26.804 54.0521 27.6539 51.7617 27.6539C50.7433 27.6512 49.2713 27.3626 48.8164 27.0373Z" fill="#0068FF"/>
<path d="M0.0773596 0.807421L1.9479 4.989C2.08946 5.30619 2.40076 5.51289 2.67633 5.474C4.94406 5.14521 14.0693 3.92075 15.9103 3.67449C16.0082 3.66025 16.0983 3.6134 16.1659 3.54164C16.2334 3.46987 16.2744 3.37745 16.2821 3.27953L16.5446 1.43227C16.6037 1.01479 16.2388 0.551615 15.8347 0.537972C12.9416 0.428146 3.3326 0.0850247 0.466998 -0.000243994C0.0835443 -0.0118405 -0.109557 0.39131 0.0739236 0.809467L0.0773596 0.807421Z" fill="url(#paint1_linear_2393_9100)"/>
<path d="M9.08073 20.926L11.9498 27.3417C11.9929 27.4397 12.0671 27.5212 12.1612 27.5735C12.2552 27.6259 12.3639 27.6463 12.4707 27.6317C12.5775 27.6171 12.6766 27.5683 12.7528 27.4927C12.8291 27.417 12.8784 27.3187 12.8933 27.2127L13.7495 21.1784C13.7677 21.0495 13.7336 20.9186 13.6546 20.8146C13.5756 20.7105 13.4582 20.642 13.3283 20.6239H13.3111L9.58444 20.2398C9.49817 20.2311 9.41112 20.2451 9.33198 20.2803C9.25285 20.3155 9.1844 20.3707 9.13348 20.4403C9.08257 20.51 9.05096 20.5917 9.04182 20.6773C9.03268 20.7629 9.04634 20.8494 9.08141 20.9281L9.08073 20.926Z" fill="url(#paint2_linear_2393_9100)"/>
<path d="M14.2702 17.482L14.6351 14.911C14.6914 14.5078 14.3547 14.0597 13.9616 14.0187C12.2436 13.8414 8.18163 13.4178 6.42791 13.2377C6.02384 13.1967 5.80256 13.6094 5.99773 14.0433L7.95692 18.4213C8.10329 18.7488 8.43108 18.9568 8.71283 18.8988L13.9224 17.8756C14.0153 17.8563 14.0995 17.8079 14.1626 17.7375C14.2257 17.6671 14.2643 17.5785 14.2729 17.4847L14.2702 17.482Z" fill="url(#paint3_linear_2393_9100)"/>
<path d="M3.02352 7.39033L4.95384 11.7056C5.09953 12.0324 5.428 12.2404 5.70975 12.1831C7.50195 11.8318 13.5664 10.6476 14.9869 10.37C15.0797 10.3503 15.1637 10.3016 15.2266 10.231C15.2894 10.1604 15.3277 10.0716 15.336 9.97772L15.5813 8.25393C15.639 7.84464 15.2865 7.38692 14.8893 7.36032C12.5446 7.19865 5.79153 6.74024 3.43377 6.58608C3.0407 6.56084 2.83385 6.96808 3.02558 7.39306L3.02352 7.39033Z" fill="url(#paint4_linear_2393_9100)"/>
<defs>
<linearGradient id="paint0_linear_2393_9100" x1="36.3242" y1="13.9054" x2="39.7602" y2="13.9054" gradientUnits="userSpaceOnUse">
<stop offset="0.08" stop-color="#F7B06E"/>
<stop offset="0.37" stop-color="#F49B75"/>
<stop offset="0.75" stop-color="#F2867C"/>
<stop offset="1" stop-color="#F27F7F"/>
</linearGradient>
<linearGradient id="paint1_linear_2393_9100" x1="28.029" y1="-18.2884" x2="-69.9373" y2="75.6935" gradientUnits="userSpaceOnUse">
<stop offset="0.08" stop-color="#F7B06E"/>
<stop offset="0.37" stop-color="#F49B75"/>
<stop offset="0.75" stop-color="#F2867C"/>
<stop offset="1" stop-color="#F27F7F"/>
</linearGradient>
<linearGradient id="paint2_linear_2393_9100" x1="43.8606" y1="-8.59844" x2="-66.1814" y2="96.968" gradientUnits="userSpaceOnUse">
<stop offset="0.08" stop-color="#F7B06E"/>
<stop offset="0.37" stop-color="#F49B75"/>
<stop offset="0.75" stop-color="#F2867C"/>
<stop offset="1" stop-color="#F27F7F"/>
</linearGradient>
<linearGradient id="paint3_linear_2393_9100" x1="35.8272" y1="-10.1596" x2="-62.139" y2="83.8223" gradientUnits="userSpaceOnUse">
<stop offset="0.08" stop-color="#F7B06E"/>
<stop offset="0.37" stop-color="#F49B75"/>
<stop offset="0.75" stop-color="#F2867C"/>
<stop offset="1" stop-color="#F27F7F"/>
</linearGradient>
<linearGradient id="paint4_linear_2393_9100" x1="31.8296" y1="-14.3274" x2="-66.1367" y2="79.6545" gradientUnits="userSpaceOnUse">
<stop offset="0.08" stop-color="#F7B06E"/>
<stop offset="0.37" stop-color="#F49B75"/>
<stop offset="0.75" stop-color="#F2867C"/>
<stop offset="1" stop-color="#F27F7F"/>
</linearGradient>
</defs>
</svg>
